HIERARCHY
ROOT Hips
{
	OFFSET -32.860001 56.121803 44.745396
	CHANNELS 6 Xposition Yposition Zposition Zrotation Xrotation Yrotation
	JOINT Chest
	{
		OFFSET -0.637402 0.831600 5.390099
		CHANNELS 6 Xposition Yposition Zposition Zrotation Xrotation Yrotation
		JOINT Chest2
		{
			OFFSET 0.000000 0.000000 4.429901
			CHANNELS 6 Xposition Yposition Zposition Zrotation Xrotation Yrotation
			JOINT Neck
			{
				OFFSET 0.000000 0.000000 10.301395
				CHANNELS 6 Xposition Yposition Zposition Zrotation Xrotation Yrotation
				JOINT Head
				{
					OFFSET 0.000000 0.000000 2.173897
					CHANNELS 6 Xposition Yposition Zposition Zrotation Xrotation Yrotation
					End Site
					{
						OFFSET 0.000000 0.000000 8.298004
					}
				}
			}
			JOINT LeftCollar
			{
				OFFSET 2.142401 -0.572701 5.717800
				CHANNELS 6 Xposition Yposition Zposition Zrotation Xrotation Yrotation
				JOINT LeftShoulder
				{
					OFFSET 5.674000 0.000000 0.000000
					CHANNELS 6 Xposition Yposition Zposition Zrotation Xrotation Yrotation
					JOINT LeftElbow
					{
						OFFSET 0.000000 0.000000 -12.238701
						CHANNELS 6 Xposition Yposition Zposition Zrotation Xrotation Yrotation
						JOINT LeftWrist
						{
							OFFSET 0.000000 0.000000 -10.253700
							CHANNELS 6 Xposition Yposition Zposition Zrotation Xrotation Yrotation
							End Site
							{
								OFFSET 0.000000 0.000000 -2.173901
							}
						}
					}
				}
			}
			JOINT RightCollar
			{
				OFFSET -2.882599 -1.580101 6.695801
				CHANNELS 6 Xposition Yposition Zposition Zrotation Xrotation Yrotation
				JOINT RightShoulder
				{
					OFFSET -4.235600 0.000000 0.000000
					CHANNELS 6 Xposition Yposition Zposition Zrotation Xrotation Yrotation
					JOINT RightElbow
					{
						OFFSET 0.000000 0.000000 -10.709900
						CHANNELS 6 Xposition Yposition Zposition Zrotation Xrotation Yrotation
						JOINT RightWrist
						{
							OFFSET 0.000000 0.000000 -11.716801
							CHANNELS 6 Xposition Yposition Zposition Zrotation Xrotation Yrotation
							End Site
							{
								OFFSET 0.000000 0.000000 -2.173901
							}
						}
					}
				}
			}
		}
	}
	JOINT LeftHip
	{
		OFFSET 2.279499 0.210400 -2.475502
		CHANNELS 6 Xposition Yposition Zposition Zrotation Xrotation Yrotation
		JOINT LeftKnee
		{
			OFFSET 0.000000 -0.000004 -20.742800
			CHANNELS 6 Xposition Yposition Zposition Zrotation Xrotation Yrotation
			JOINT LeftAnkle
			{
				OFFSET 0.000000 0.000000 -16.666000
				CHANNELS 6 Xposition Yposition Zposition Zrotation Xrotation Yrotation
				End Site
				{
					OFFSET 0.000000 -8.310898 0.000000
				}
			}
		}
	}
	JOINT RightHip
	{
		OFFSET -1.961899 0.232300 -2.727402
		CHANNELS 6 Xposition Yposition Zposition Zrotation Xrotation Yrotation
		JOINT RightKnee
		{
			OFFSET 0.000000 -0.000004 -20.526800
			CHANNELS 6 Xposition Yposition Zposition Zrotation Xrotation Yrotation
			JOINT RightAnkle
			{
				OFFSET 0.000000 0.000000 -16.867300
				CHANNELS 6 Xposition Yposition Zposition Zrotation Xrotation Yrotation
				End Site
				{
					OFFSET 0.000000 -7.186401 0.000000
				}
			}
		}
	}
}
MOTION
Frames: 6
Frame Time: 0.041667
-52.509098 29.092506 44.534691 1129.946608 -5.231904 2.738684 -0.637404 0.831606 5.390094 -5.030504 6.861783 -1.147792 -0.000002 0.000003 4.429897 0.238364 0.606952 0.011274 0.000000 -0.000001 10.301407 377.471060 5.413907 -14.762102 0.000001 0.000005 2.173906 -358.215691 0.764503 0.000993 2.142397 -0.572695 5.717800 1.968880 -6.860154 -22.817314 5.673993 -0.000004 0.000002 316.477252 -773.282216 -120.225386 0.000001 -0.000010 -12.238698 -860.955071 200.363995 -171.908225 -0.000004 0.000000 -10.253699 -196.961537 8.552479 21.471567 -2.882602 -1.580096 6.695799 -3.189996 -7.834697 13.672730 -4.235603 0.000007 0.000005 -1068.558179 -13.989718 -644.005314 0.000000 0.000004 -10.709903 67.173845 -133.558038 34.382704 -0.000005 0.000006 -11.716803 -1112.982604 6.022518 14.451499 2.279501 0.210411 -2.475502 380.814274 -16.115092 -12.205072 0.000002 -0.000013 -20.742805 -376.626630 31.423737 -4.811544 -0.000004 0.000006 -16.666004 380.779522 28.717981 27.072157 -1.961901 0.232306 -2.727411 -1088.591397 -4.519168 8.641270 -0.000004 -0.000006 -20.526798 900.958560 147.226135 -187.695115 -0.000001 -0.000001 -16.867298 -0.735310 20.894780 -3.408882
-52.547791 29.094904 44.529888 1130.086381 -5.168531 2.671814 -0.637403 0.831590 5.390098 -5.238067 6.979316 -1.070159 -0.000013 0.000007 4.429897 0.346905 0.594857 0.007598 -0.000001 -0.000004 10.301390 377.566601 5.527932 -14.671923 0.000007 -0.000002 2.173898 -358.204381 0.805118 0.035784 2.142396 -0.572703 5.717797 1.898335 -6.952555 -22.852633 5.673991 0.000006 -0.000012 316.642871 -772.929451 -119.588949 0.000007 -0.000011 -12.238700 -860.594382 200.436600 -171.730476 -0.000001 0.000001 -10.253690 -197.774930 8.499159 21.622704 -2.882601 -1.580099 6.695788 -3.298309 -7.867055 13.559510 -4.235600 -0.000009 -0.000004 -1068.615553 -14.097560 -644.021050 -0.000002 0.000005 -10.709893 67.185245 -133.588391 34.455815 0.000008 0.000001 -11.716810 -1112.850918 6.029247 14.589235 2.279500 0.210402 -2.475494 381.182394 -16.374521 -12.041399 -0.000001 -0.000010 -20.742802 -376.494015 31.384682 -4.942408 0.000004 0.000006 -16.666000 380.274279 28.835054 26.817701 -1.961891 0.232300 -2.727402 -1089.070275 -4.992327 8.523353 -0.000006 0.000002 -20.526794 901.570928 146.640610 -187.558607 -0.000010 -0.000003 -16.867306 -1.018895 20.690361 -3.428941
-52.584904 29.095005 44.525993 1130.260469 -5.093807 2.604692 -0.637411 0.831605 5.390095 -5.472829 7.094773 -1.002019 0.000004 0.000007 4.429894 0.461370 0.565606 0.010946 0.000000 -0.000004 10.301389 377.662524 5.663340 -14.580084 -0.000003 0.000006 2.173890 -358.194736 0.853995 0.062519 2.142393 -0.572706 5.717795 1.811726 -7.011171 -22.872845 5.673997 0.000002 0.000002 316.845809 -772.512318 -118.915069 -0.000002 0.000002 -12.238700 -860.259703 200.533097 -171.572453 0.000002 0.000002 -10.253704 -198.445464 8.446972 21.719257 -2.882601 -1.580099 6.695791 -3.385250 -7.839339 13.397927 -4.235605 0.000001 -0.000002 -1068.705165 -14.244367 -644.013182 -0.000010 -0.000008 -10.709911 67.191200 -133.623048 34.536817 0.000000 0.000004 -11.716799 -1112.693222 6.032316 14.717524 2.279498 0.210408 -2.475501 381.524122 -16.637895 -11.869930 0.000000 -0.000014 -20.742804 -376.352384 31.339251 -5.075870 0.000005 0.000005 -16.665997 379.757971 28.952858 26.557845 -1.961898 0.232310 -2.727396 -1089.537351 -5.435269 8.412356 0.000004 -0.000006 -20.526800 902.111332 146.105601 -187.428000 -0.000010 0.000006 -16.867298 -1.286381 20.499809 -3.450032
-52.619900 29.092701 44.522594 1130.451933 -5.035613 2.530859 -0.637400 0.831602 5.390098 -5.694339 7.176868 -0.863666 -0.000000 -0.000006 4.429901 0.554033 0.580695 -0.055115 -0.000001 0.000000 10.301394 377.765441 5.805537 -14.487444 -0.000002 -0.000001 2.173897 -358.213041 0.889284 0.123412 2.142398 -0.572698 5.717799 1.987151 -7.496274 -22.903262 5.673996 0.000006 0.000005 316.967332 -771.859898 -117.818291 0.000007 -0.000007 -12.238707 -860.011139 200.695861 -171.515243 0.000005 -0.000006 -10.253698 -198.909411 8.384853 21.741001 -2.882605 -1.580096 6.695789 -3.471286 -7.802850 13.224106 -4.235601 -0.000003 -0.000011 -1068.782865 -14.396012 -644.023017 0.000002 0.000008 -10.709909 67.123015 -133.615944 34.568387 0.000000 0.000005 -11.716795 -1112.586234 6.018960 14.836991 2.279506 0.210402 -2.475492 381.802329 -16.858159 -11.709738 -0.000001 -0.000007 -20.742802 -376.215371 31.290312 -5.188461 -0.000000 0.000006 -16.666002 379.282044 29.062516 26.323406 -1.961888 0.232310 -2.727404 -1090.004755 -5.833812 8.331326 0.000003 -0.000008 -20.526802 902.555131 145.605891 -187.292325 -0.000003 0.000000 -16.867296 -1.487765 20.326124 -3.454149
-52.653397 29.088306 44.519394 1130.639025 -4.986605 2.456489 -0.637403 0.831598 5.390100 -5.925339 7.303778 -0.852782 0.000001 0.000000 4.429909 0.668084 0.557015 -0.002095 -0.000004 0.000001 10.301399 377.885871 5.960142 -14.384290 -0.000002 -0.000009 2.173910 -358.245553 0.950243 0.163058 2.142388 -0.572695 5.717799 1.889927 -7.514521 -22.903088 5.674003 -0.000006 0.000004 317.144371 -771.402986 -117.166568 0.000012 -0.000009 -12.238701 -859.834811 200.749792 -171.356660 0.000001 -0.000001 -10.253692 -199.307611 8.381610 21.881450 -2.882606 -1.580096 6.695796 -3.560516 -7.763338 13.057926 -4.235607 0.000002 0.000002 -1068.829310 -14.532563 -644.052415 -0.000006 0.000001 -10.709911 67.048627 -133.587476 34.616167 -0.000008 0.000000 -11.716803 -1112.483727 5.996820 14.900966 2.279498 0.210400 -2.475501 382.072641 -17.063023 -11.552239 -0.000002 -0.000014 -20.742805 -376.081035 31.249471 -5.299819 -0.000000 0.000002 -16.666004 378.815733 29.163409 26.116557 -1.961895 0.232299 -2.727407 -1090.409867 -6.188726 8.248696 -0.000005 -0.000000 -20.526798 902.904454 145.147981 -187.148836 -0.000003 0.000006 -16.867302 -1.675751 20.164684 -3.443008
-52.685604 29.081909 44.516495 1130.816829 -4.957211 2.380773 -0.637407 0.831604 5.390102 -6.153181 7.430675 -0.781309 -0.000001 0.000009 4.429899 0.785817 0.542076 -0.005535 0.000005 -0.000003 10.301390 377.975237 6.137118 -14.261716 -0.000002 0.000004 2.173903 -358.253804 0.998816 0.191820 2.142403 -0.572708 5.717798 1.772691 -7.520309 -22.906045 5.673997 0.000002 0.000004 317.318076 -770.947712 -116.526033 -0.000006 -0.000012 -12.238694 -859.687989 200.844103 -171.278782 -0.000004 0.000001 -10.253712 -199.606746 8.359403 21.933356 -2.882597 -1.580106 6.695786 -3.620282 -7.678754 12.884075 -4.235604 0.000004 -0.000004 -1068.877286 -14.691045 -644.080883 0.000008 0.000002 -10.709902 66.916347 -133.511934 34.621710 -0.000010 0.000004 -11.716800 -1112.460777 5.972749 14.872973 2.279499 0.210407 -2.475494 382.304812 -17.233916 -11.409054 -0.000001 -0.000005 -20.742802 -375.992925 31.229056 -5.380079 -0.000001 0.000001 -16.666002 378.419118 29.241717 25.955989 -1.961895 0.232303 -2.727401 -1090.796292 -6.505169 8.176804 -0.000004 -0.000004 -20.526804 903.269514 144.712147 -187.038720 -0.000002 0.000005 -16.867304 -1.881585 19.989872 -3.428700
